<svg id="Layer_1" data-name="Layer 1" xmlns="http://www.w3.org/2000/svg" viewBox="0 0 3000 3000"><defs><style>.cls-1{fill:#dbd4c4;}.cls-2{fill:#7c6c54;}.cls-3{fill:#0c0c0c;}.cls-4{fill:#fff;}</style></defs><circle class="cls-1" cx="1500" cy="1500" r="1500"/><path class="cls-2" d="M489.59,2023.93A25,25,0,0,1,467.16,2010c-13.13-26.54-25.37-53.91-36.39-81.36-54.69-136.3-82.42-280.52-82.42-428.65A1150.62,1150.62,0,0,1,867.09,537.71a25,25,0,0,1,27.52,41.75C583.87,784.24,398.35,1128.36,398.35,1500c0,141.72,26.52,279.68,78.83,410,10.53,26.25,22.24,52.43,34.8,77.81a25,25,0,0,1-22.39,36.09Z"/><path class="cls-2" d="M656,2271.33a25,25,0,0,1-18.73-8.43c-24.78-28-48.42-57.49-70.38-87.78a23.79,23.79,0,0,1-1.75-2.2c-8.4-11.8-16.73-23.9-24.74-36A25,25,0,1,1,582,2109.28c6,9.09,12.27,18.2,18.57,27.18.43.52.84,1.05,1.24,1.61a1111,1111,0,0,0,72.87,91.69A25,25,0,0,1,656,2271.33Z"/><path class="cls-2" d="M1500,2651.65a1146.81,1146.81,0,0,1-702.36-238.9,25,25,0,1,1,30.52-39.61c194,149.49,426.3,228.51,671.84,228.51,607.45,0,1101.65-494.2,1101.65-1101.65a1103.5,1103.5,0,0,0-42.18-303,25,25,0,1,1,48.08-13.72,1153.61,1153.61,0,0,1,44.1,316.68c0,155.46-30.46,306.28-90.52,448.28a1154.88,1154.88,0,0,1-612.85,612.85C1806.28,2621.19,1655.46,2651.65,1500,2651.65Z"/><path class="cls-2" d="M2525.53,1057.8a25,25,0,0,1-22.76-14.63c-10.08-22.07-21-44.1-32.56-65.47a25,25,0,1,1,44-23.75c12.06,22.35,23.51,45.38,34,68.47a25,25,0,0,1-22.72,35.38Z"/><path class="cls-2" d="M2441.43,905.84a25,25,0,0,1-20.89-11.25A1109.4,1109.4,0,0,0,2319.72,764C2110.94,531.62,1812.17,398.35,1500,398.35c-165.45,0-324.51,35.77-472.74,106.3a25,25,0,0,1-21.49-45.15,1145.68,1145.68,0,0,1,237-82.3,1161.61,1161.61,0,0,1,505-2.12A1146.5,1146.5,0,0,1,2182,571.88a1157.51,1157.51,0,0,1,280.33,295.2,25,25,0,0,1-20.85,38.76Z"/><path class="cls-3" d="M1084.51,1286.63c179.49-94.24,358.32-187.5,536-283,10.86-5.83,26.51-29.08,26.65-44.27.62-71.75,14.68-135.77,52.59-187.1a752.29,752.29,0,0,0-186.86-23.44c-305.57,0-568.5,182.47-685.83,444.38C924,1181.45,1010.31,1215.56,1084.51,1286.63Z"/><path class="cls-3" d="M2185,1164.33c-101.53,115.35-279.77,141.21-411.45,48.86-23.55-16.51-39.2-17.35-64.52-3.78-168.83,90.46-338.18,180-509,266.66-32.53,16.5-33.08,41.2-30.85,66.06,1.11,12.43,19,27.22,32.71,34.08,162.13,81,325.24,160.1,487.16,241.52,24.15,12.14,37.67,8.09,56.68-8.51,100-87.33,242.63-102.51,356.13-39.94a308,308,0,0,1,82.83,67,752.54,752.54,0,0,0,.31-672Z"/><path class="cls-3" d="M1657.11,2088.81c-6-43.44-35.19-58.57-74.21-77.13-167.14-79.49-332.59-162.57-498.05-245.54-23-11.51-39.1-12-62.51,1.87-63.51,37.67-127.69,54.07-190.91,48.44,119.42,256.71,379.63,434.69,681.42,434.69a752.42,752.42,0,0,0,186.08-23.24C1671.19,2189.8,1664,2138.33,1657.11,2088.81Z"/><circle class="cls-3" cx="1500" cy="1500" r="315.82"/><path class="cls-2" d="M1500,1840.82A339.83,339.83,0,1,1,1632.67,1814,338.67,338.67,0,0,1,1500,1840.82Zm0-631.64c-160.36,0-290.82,130.46-290.82,290.82s130.46,290.82,290.82,290.82,290.82-130.46,290.82-290.82S1660.36,1209.18,1500,1209.18Z"/><path class="cls-2" d="M2232,1196.19q-12.37-29.25-27-57.23a303.52,303.52,0,0,1-42,47.83,721.14,721.14,0,0,1-.24,626.92,320.07,320.07,0,0,1,41.89,47.93q14.76-28.26,27.29-57.83a782.92,782.92,0,0,0,0-607.62Z"/><path class="cls-2" d="M1681.91,2201.77a721,721,0,0,1-169.06,20c-284.18,0-530.51-165.08-648.17-404.38a275.37,275.37,0,0,1-67.83-6.25,781.77,781.77,0,0,0,922.42,441.79A301.45,301.45,0,0,1,1681.91,2201.77Z"/><path class="cls-2" d="M793.41,1199.07a324.1,324.1,0,0,1,67.23-8.1c116-243.81,364.74-412.75,652.21-412.75a720.89,720.89,0,0,1,169.56,20.13,314.65,314.65,0,0,1,37.8-51A781.5,781.5,0,0,0,793.7,1196.19c-.44,1-.86,2.08-1.29,3.11Z"/><path class="cls-4" d="M1097.43,1286.63c179.49-94.24,358.31-187.5,536-283,10.86-5.83,17.36-29,17.5-44.19,2-230.79,237.53-382.25,445-285.27,167.47,78.28,230.26,280.88,136.91,441.68-90.15,155.29-297.84,201.43-446.32,97.3-23.55-16.51-39.2-17.35-64.52-3.78-168.83,90.46-338.19,180-509,266.66-32.52,16.5-33.07,41.2-30.85,66.06,1.12,12.43,19,27.22,32.72,34.08,162.13,81,325.23,160.1,487.16,241.52,24.15,12.14,37.67,8.09,56.68-8.51,100-87.33,242.63-102.5,356.13-39.94,111.61,61.53,177.64,192.24,159,314.78-20.85,137.14-115.18,237.06-250.38,265.21-170,35.39-341.37-81.8-365.27-253.95-6-43.43-23.29-65.08-62.31-83.64-167.14-79.49-332.59-162.57-498-245.54-23-11.51-39.1-12-62.51,1.87-114.84,68.11-231.87,66.73-341.43-8.83-108.55-74.86-152.32-183.71-128-313.17,25-133.08,108.88-217.31,240.5-246.94C917.1,1174.14,1014.76,1207.46,1097.43,1286.63Z"/><path class="cls-3" d="M1962.06,2365.62a313.51,313.51,0,0,1-67.59-7.42A321.2,321.2,0,0,1,1778,2306.72a315.79,315.79,0,0,1-85.79-89.95,301.22,301.22,0,0,1-44-120.07c-5.45-39.25-19.75-58.42-56.7-76-162.91-77.48-326.86-159.7-485.41-239.2l-12.82-6.43c-20.9-10.48-33.27-10.12-52.93,1.54-59.11,35.05-119,52.15-178,50.85-59.73-1.33-118.34-21.54-174.19-60.06-55.53-38.29-95-85.59-117.41-140.57-22.27-54.72-27.23-116.18-14.74-182.67,25.53-135.94,111.34-224.07,248.14-254.86,55.94-12.59,110.2-10.92,161.25,5,47.19,14.67,92.14,41.64,133.7,80.2l92.77-48.67c143.51-75.25,291.91-153.07,436.79-230.93,5.28-2.84,12.1-20.11,12.24-35.47.5-57.28,15.43-113.17,43.19-161.62A327.08,327.08,0,0,1,1793.2,684.08a322.11,322.11,0,0,1,146.46-48.74c55.08-4.24,109.07,5.79,160.44,29.81a321.78,321.78,0,0,1,108.17,81.57,321.4,321.4,0,0,1,76,243.88,326.93,326.93,0,0,1-42.89,130.31,312.84,312.84,0,0,1-89.65,98.42,324.46,324.46,0,0,1-247.36,54.27,316.14,316.14,0,0,1-123.7-52.22c-20.38-14.3-32-15-54.06-3.16-138.33,74.13-321.23,171.44-509.2,266.77-27,13.68-27.52,32.75-25.42,56.25.6,6.68,13.83,19.33,27.23,26,73.5,36.73,148.46,73.68,220.94,109.41,87.37,43.07,177.72,87.61,266.24,132.12,20.18,10.15,29.5,7,45.61-7.12a324.52,324.52,0,0,1,178.49-78.58,317.36,317.36,0,0,1,189.05,37.43c55.72,30.72,102.76,80,132.44,138.75s40.95,125,31.63,186.28c-10.53,69.31-39.9,131.16-84.92,178.84s-104.95,80.43-173.3,94.66A310.69,310.69,0,0,1,1962.06,2365.62Zm-894.71-618.1c10.92,0,22.06,3.24,34.9,9.68l12.83,6.43c158.45,79.46,322.3,161.62,485,239,43.12,20.5,61.53,45.25,67.92,91.3,11,79.23,54.14,149,121.47,196.42,67.8,47.78,152.31,65.67,231.86,49.11,131.57-27.4,222.24-123.44,242.53-256.93,18.14-119.32-45.17-244.54-154-304.51-110.12-60.71-248.66-45.15-344.72,38.71-20.25,17.68-37.83,25-67.75,9.92-88.45-44.48-178.76-89-266.1-132.05-72.51-35.74-147.49-72.7-221-109.46-12.47-6.23-36.5-23.06-38.21-42.14-2.38-26.6-1.73-56.59,36.29-75.87,187.8-95.24,370.57-192.48,508.81-266.56,28.75-15.4,48.37-14.25,75,4.41,68.45,48,155,65.14,237.36,47,82.06-18.06,153-69.5,194.57-141.14,43.92-75.64,53.92-162.55,28.17-244.72-25.53-81.44-82.59-146.39-160.66-182.89-93.34-43.63-200.92-37-287.77,17.74-88.6,55.84-142,152.5-143,258.56-.15,17-7.31,44.62-22.77,52.92-145,77.9-293.42,155.75-437,231q-49.5,26-99.07,52l-6.37,3.34-5.2-5c-83.3-79.78-178.17-108.39-282-85-128.41,28.9-208.93,111.55-232.87,239C552,1573.93,594.8,1678.74,699.5,1751c105.82,73,217.07,75.83,330.66,8.46C1043.56,1751.46,1055.31,1747.52,1067.35,1747.52Z"/><circle class="cls-1" cx="872.59" cy="1506.94" r="240.17"/><path class="cls-3" d="M872.59,1754.61a247.67,247.67,0,1,1,175.13-72.54A246,246,0,0,1,872.59,1754.61Zm0-480.33c-128.29,0-232.66,104.37-232.66,232.66s104.37,232.67,232.66,232.67,232.67-104.38,232.67-232.67S1000.88,1274.28,872.59,1274.28Z"/><circle class="cls-1" cx="1968.1" cy="959.4" r="240.17"/><path class="cls-3" d="M1968.1,1207.07a247.67,247.67,0,1,1,175.12-72.54A246,246,0,0,1,1968.1,1207.07Zm0-480.33c-128.3,0-232.67,104.37-232.67,232.66s104.37,232.67,232.67,232.67,232.66-104.37,232.66-232.67S2096.39,726.74,1968.1,726.74Z"/><circle class="cls-1" cx="1968.1" cy="2045.82" r="240.17"/><path class="cls-3" d="M1968.1,2293.49A247.67,247.67,0,1,1,2143.22,2221,246.08,246.08,0,0,1,1968.1,2293.49Zm0-480.34c-128.3,0-232.67,104.38-232.67,232.67s104.37,232.67,232.67,232.67,232.66-104.38,232.66-232.67S2096.39,1813.15,1968.1,1813.15Z"/><path class="cls-2" d="M790.26,741.31a161,161,0,0,1-7.8,112.18q-2.44,5.41-5.34,10.73L634.39,1126q-2.89,5.31-6.13,10.31-5.41-2.44-10.73-5.35L355.76,988.22q-5.31-2.9-10.31-6.12a161.5,161.5,0,0,1,154.2-282.81,161.51,161.51,0,0,1,290.61,42Z"/><path class="cls-2" d="M2823.93,1685.93a117.94,117.94,0,0,1-68,46.56q-4.23,1.07-8.6,1.81L2532,1771.41c-2.91.5-5.82.89-8.71,1.17-.7-2.82-1.31-5.69-1.81-8.6l-37.1-215.37c-.51-2.91-.9-5.82-1.18-8.71a118.38,118.38,0,0,1,232.68-40.09,118.38,118.38,0,0,1,108.09,186.12Z"/></svg>